<?xml version="1.0" encoding="UTF-8"?>
<!DOCTYPE svg PUBLIC "-//W3C//DTD SVG 1.1//EN" "http://www.w3.org/Graphics/SVG/1.1/DTD/svg11.dtd">
<svg xmlns="http://www.w3.org/2000/svg" version="1.1" width="256px" height="256px" style="shape-rendering:geometricPrecision; text-rendering:geometricPrecision; image-rendering:optimizeQuality; fill-rule:evenodd; clip-rule:evenodd" xmlns:xlink="http://www.w3.org/1999/xlink">
<g><path style="opacity:1" fill="#5b5b5b" d="M 34.5,-0.5 C 107.5,-0.5 180.5,-0.5 253.5,-0.5C 253.833,0.5 254.5,1.16667 255.5,1.5C 255.5,74.5 255.5,147.5 255.5,220.5C 252.282,240.052 240.948,251.718 221.5,255.5C 158.5,255.5 95.5,255.5 32.5,255.5C 14.5,251.5 3.5,240.5 -0.5,222.5C -0.5,159.5 -0.5,96.5 -0.5,33.5C 3.28159,14.0518 14.9483,2.71843 34.5,-0.5 Z"/></g>
<g><path style="opacity:1" fill="#000000" d="M 30.5,7.5 C 84.8333,7.5 139.167,7.5 193.5,7.5C 193.333,21.1707 193.5,34.8374 194,48.5C 194.833,52 197,54.1667 200.5,55C 216.163,55.4999 231.83,55.6666 247.5,55.5C 247.667,111.834 247.5,168.168 247,224.5C 243.5,236 236,243.5 224.5,247C 159.833,247.667 95.1667,247.667 30.5,247C 18.9913,243.491 11.4913,235.991 8,224.5C 7.33333,159.833 7.33333,95.1667 8,30.5C 11.684,18.9837 19.184,11.3171 30.5,7.5 Z"/></g>
<g><path style="opacity:1" fill="#000000" d="M 202.5,11.5 C 208.593,11.1392 214.593,11.6392 220.5,13C 224.5,18 224.5,23 220.5,28C 215.964,29.3789 211.297,29.8789 206.5,29.5C 206.5,33.1667 206.5,36.8333 206.5,40.5C 205.167,40.5 203.833,40.5 202.5,40.5C 202.173,35.456 202.506,30.456 203.5,25.5C 208.113,24.7213 212.78,24.2213 217.5,24C 220.172,21.3212 219.838,18.9879 216.5,17C 211.845,16.5008 207.179,16.3342 202.5,16.5C 202.5,14.8333 202.5,13.1667 202.5,11.5 Z"/></g>
<g><path style="opacity:1" fill="#000000" d="M 227.5,18.5 C 232.844,18.334 238.177,18.5006 243.5,19C 244.333,19.8333 245.167,20.6667 246,21.5C 246.667,27.5 246.667,33.5 246,39.5C 240.584,40.6389 235.084,40.8056 229.5,40C 225.95,36.2685 225.617,32.2685 228.5,28C 233.155,27.5008 237.821,27.3342 242.5,27.5C 242.714,25.8561 242.38,24.3561 241.5,23C 236.845,22.5008 232.179,22.3342 227.5,22.5C 227.5,21.1667 227.5,19.8333 227.5,18.5 Z"/></g>
<g><path style="opacity:1" fill="#5b5b5b" d="M 231.5,30.5 C 235.167,30.5 238.833,30.5 242.5,30.5C 242.5,32.5 242.5,34.5 242.5,36.5C 238.76,36.7592 235.094,36.4259 231.5,35.5C 230.334,33.8327 230.334,32.166 231.5,30.5 Z"/></g>
<g><path style="opacity:1" fill="#1c1c1c" d="M 72.5,75.5 C 80.3228,74.6708 88.3228,74.1708 96.5,74C 84.1698,69.2164 72.1698,70.0498 60.5,76.5C 59.5481,78.0453 59.2148,79.712 59.5,81.5C 61.5,81.5 63.5,81.5 65.5,81.5C 65.5824,83.2517 64.7491,84.2517 63,84.5C 61.2341,83.7665 59.4008,83.4332 57.5,83.5C 56.1667,80.8333 56.1667,78.1667 57.5,75.5C 60.7143,74.5596 63.7143,73.0596 66.5,71C 74.7274,70.1972 82.8941,69.0306 91,67.5C 94.7941,67.8478 98.1275,69.1811 101,71.5C 101.667,70.8333 102.333,70.1667 103,69.5C 104.44,70.1476 105.94,70.4809 107.5,70.5C 107.586,72.677 108.253,74.677 109.5,76.5C 108.667,76.8333 107.833,77.1667 107,77.5C 95.5678,75.7944 84.0678,75.1277 72.5,75.5 Z"/></g>
<g><path style="opacity:1" fill="#282828" d="M 72.5,75.5 C 71.325,75.281 70.325,75.6143 69.5,76.5C 68.3875,78.4192 67.0542,80.0858 65.5,81.5C 63.5,81.5 61.5,81.5 59.5,81.5C 59.2148,79.712 59.5481,78.0453 60.5,76.5C 72.1698,70.0498 84.1698,69.2164 96.5,74C 88.3228,74.1708 80.3228,74.6708 72.5,75.5 Z"/></g>
<g><path style="opacity:1" fill="#212121" d="M 167.5,66.5 C 177.197,68.9447 186.863,70.4447 196.5,71C 197.79,73.292 199.457,75.292 201.5,77C 199.731,78.3139 197.731,79.1472 195.5,79.5C 192.699,77.9272 190.032,76.0938 187.5,74C 178.468,73.335 169.468,73.6684 160.5,75C 157.081,77.359 153.414,78.6924 149.5,79C 148.426,78.2613 147.759,77.2613 147.5,76C 150.073,72.9212 153.073,70.4212 156.5,68.5C 160.621,69.9839 164.288,69.3172 167.5,66.5 Z"/></g>
<g><path style="opacity:1" fill="#242424" d="M 72.5,91.5 C 78.8185,94.0336 85.4851,95.2002 92.5,95C 95.2668,97.8988 94.6001,99.8988 90.5,101C 86.1667,101.667 81.8333,101.667 77.5,101C 75.6612,97.8181 73.9945,94.6514 72.5,91.5 Z"/></g>
<g><path style="opacity:1" fill="#151515" d="M 169.5,93.5 C 174.136,94.1489 178.802,94.6489 183.5,95C 183.167,95.3333 182.833,95.6667 182.5,96C 184.5,96.3333 186.5,96.6667 188.5,97C 182.43,102.197 175.43,103.864 167.5,102C 164.968,99.9062 162.301,98.0728 159.5,96.5C 162.447,95.6786 165.447,95.1786 168.5,95C 169.056,94.6174 169.389,94.1174 169.5,93.5 Z"/></g>
<g><path style="opacity:1" fill="#1d1d1d" d="M 182.5,114.5 C 183.622,113.844 184.955,113.511 186.5,113.5C 191.911,115.342 197.245,117.008 202.5,118.5C 197.687,117.741 193.687,119.075 190.5,122.5C 188.695,121.763 187.029,120.763 185.5,119.5C 190.774,115.371 189.774,113.705 182.5,114.5 Z"/></g>
<g><path style="opacity:1" fill="#bebebe" d="M 177.5,114.5 C 179.606,114.679 181.272,115.679 182.5,117.5C 180.875,120.548 178.542,121.215 175.5,119.5C 175.5,118.5 175.5,117.5 175.5,116.5C 175.833,115.5 176.5,114.833 177.5,114.5 Z"/></g>
<g><path style="opacity:1" fill="#343434" d="M 98.5,116.5 C 96.2603,117.264 93.9269,118.098 91.5,119C 90.1667,119.667 90.1667,120.333 91.5,121C 90.0445,122.626 88.3779,123.792 86.5,124.5C 85.6618,124.842 85.3284,125.508 85.5,126.5C 83.5887,127.075 81.922,128.075 80.5,129.5C 77.7928,125.208 74.1262,123.875 69.5,125.5C 67.4862,125.392 65.8195,126.058 64.5,127.5C 63.5272,128.791 62.5272,128.791 61.5,127.5C 60.8182,128.243 60.1515,128.909 59.5,129.5C 58.0867,128.065 56.42,127.065 54.5,126.5C 57.8096,126.142 61.1429,125.809 64.5,125.5C 63.5,124.5 62.5,123.5 61.5,122.5C 59.9017,123.485 58.235,123.651 56.5,123C 57.8146,121.605 57.4812,120.605 55.5,120C 69.6136,116.986 83.947,115.819 98.5,116.5 Z"/></g>
<g><path style="opacity:1" fill="#252525" d="M 175.5,116.5 C 175.5,117.5 175.5,118.5 175.5,119.5C 173.77,120.912 172.27,120.578 171,118.5C 169.261,120.318 167.094,121.318 164.5,121.5C 164.167,121.5 163.833,121.5 163.5,121.5C 161.708,120.691 159.708,120.191 157.5,120C 160.152,119.647 162.152,118.48 163.5,116.5C 167.65,116.244 171.65,116.244 175.5,116.5 Z"/></g>
<g><path style="opacity:1" fill="#3c3c3c" d="M 163.5,116.5 C 162.152,118.48 160.152,119.647 157.5,120C 159.708,120.191 161.708,120.691 163.5,121.5C 158.475,120.389 154.808,122.056 152.5,126.5C 150.5,127.833 148.5,127.833 146.5,126.5C 145.384,124.492 143.551,123.492 141,123.5C 138.914,124.418 136.747,125.085 134.5,125.5C 133.081,124.549 131.415,124.216 129.5,124.5C 129.5,125.5 129.5,126.5 129.5,127.5C 127.708,127.634 126.042,127.301 124.5,126.5C 119.816,121.546 114.816,121.212 109.5,125.5C 108.167,125.5 106.833,125.5 105.5,125.5C 102.068,123.009 98.5681,123.009 95,125.5C 92.2077,124.784 89.3743,124.451 86.5,124.5C 88.3779,123.792 90.0445,122.626 91.5,121C 90.1667,120.333 90.1667,119.667 91.5,119C 93.9269,118.098 96.2603,117.264 98.5,116.5C 105.015,116.499 111.515,116.166 118,115.5C 121.37,115.333 124.537,115.999 127.5,117.5C 131.448,116.865 135.448,116.532 139.5,116.5C 143.595,116.542 147.429,117.208 151,118.5C 151.333,117.833 151.667,117.167 152,116.5C 155.71,116.823 159.543,116.823 163.5,116.5 Z"/></g>
<g><path style="opacity:1" fill="#0d0d0d" d="M 226.5,141.5 C 228.032,139.479 230.032,137.979 232.5,137C 231.333,136.5 230.5,135.667 230,134.5C 226.893,135.349 223.893,135.683 221,135.5C 220.612,134.572 219.945,133.905 219,133.5C 217.535,134.33 216.035,134.496 214.5,134C 215.167,131.333 215.833,128.667 216.5,126C 215.478,123.684 213.978,123.184 212,124.5C 210.863,120.952 208.697,119.618 205.5,120.5C 204.5,120.167 203.833,119.5 203.5,118.5C 203.369,117.761 203.536,117.094 204,116.5C 205.062,117.097 206.228,117.43 207.5,117.5C 209.876,116.774 211.876,115.441 213.5,113.5C 214.167,113.833 214.833,114.167 215.5,114.5C 217.793,112.805 220.127,112.138 222.5,112.5C 223.795,113.098 225.128,113.598 226.5,114C 225.5,115 224.5,116 223.5,117C 229.029,117.084 234.362,118.084 239.5,120C 241.101,123.267 241.934,126.767 242,130.5C 244.277,131.704 244.777,133.37 243.5,135.5C 241.885,136.154 240.218,136.654 238.5,137C 237.743,138.512 236.743,139.846 235.5,141C 232.518,141.498 229.518,141.665 226.5,141.5 Z"/></g>
<g><path style="opacity:1" fill="#cbcbcb" d="M 105.5,125.5 C 107.763,130.26 106.43,132.427 101.5,132C 100.504,130.987 99.5037,130.154 98.5,129.5C 94.9535,130.973 93.9535,133.306 95.5,136.5C 97.2849,138.134 99.2849,139.468 101.5,140.5C 101.229,142.43 100.229,143.764 98.5,144.5C 95.8333,144.5 93.1667,144.5 90.5,144.5C 89.5,144.5 88.5,144.5 87.5,144.5C 86.9094,143.849 86.2427,143.182 85.5,142.5C 86.7682,140.953 88.4348,139.953 90.5,139.5C 91.4656,137.604 91.7989,135.604 91.5,133.5C 91.5,131.833 91.5,130.167 91.5,128.5C 88.9179,128.975 86.9179,128.308 85.5,126.5C 85.3284,125.508 85.6618,124.842 86.5,124.5C 89.3743,124.451 92.2077,124.784 95,125.5C 98.5681,123.009 102.068,123.009 105.5,125.5 Z"/></g>
<g><path style="opacity:1" fill="#cdcdcd" d="M 182.5,128.5 C 182.5,129.5 182.5,130.5 182.5,131.5C 182.5,132.833 182.5,134.167 182.5,135.5C 184.792,135.244 186.959,135.577 189,136.5C 189.485,139.172 188.318,140.505 185.5,140.5C 180.833,140.5 176.167,140.5 171.5,140.5C 171.5,139.5 171.5,138.5 171.5,137.5C 172.791,137.737 173.791,137.404 174.5,136.5C 175.5,136.5 176.5,136.5 177.5,136.5C 177.5,132.5 177.5,128.5 177.5,124.5C 175.396,124.799 173.396,124.466 171.5,123.5C 178.146,119.384 181.813,121.05 182.5,128.5 Z"/></g>
<g><path style="opacity:1" fill="#b1b1b1" d="M 69.5,125.5 C 74.1262,123.875 77.7928,125.208 80.5,129.5C 80.5,131.167 80.5,132.833 80.5,134.5C 80.5,135.833 80.5,137.167 80.5,138.5C 79.9589,135.189 78.7922,131.856 77,128.5C 76.7266,130.101 76.2266,131.601 75.5,133C 73.444,133.311 71.444,133.811 69.5,134.5C 68.2121,132.701 68.2121,131.035 69.5,129.5C 69.5,130.5 69.5,131.5 69.5,132.5C 71.8273,132.753 73.8273,132.086 75.5,130.5C 74.4231,129.295 73.0898,128.628 71.5,128.5C 72.5417,127.209 73.7083,127.209 75,128.5C 75.4828,127.552 75.6495,126.552 75.5,125.5C 73.5,125.5 71.5,125.5 69.5,125.5 Z"/></g>
<g><path style="opacity:1" fill="#606060" d="M 134.5,125.5 C 131.12,125.179 130.287,126.179 132,128.5C 132.497,131.146 132.664,133.813 132.5,136.5C 131.596,135.791 131.263,134.791 131.5,133.5C 129.345,133.372 127.345,133.872 125.5,135C 126.416,135.278 127.082,135.778 127.5,136.5C 126.5,136.5 125.5,136.5 124.5,136.5C 124.5,133.167 124.5,129.833 124.5,126.5C 126.042,127.301 127.708,127.634 129.5,127.5C 129.5,126.5 129.5,125.5 129.5,124.5C 131.415,124.216 133.081,124.549 134.5,125.5 Z"/></g>
<g><path style="opacity:1" fill="#626262" d="M 146.5,126.5 C 148.5,127.833 150.5,127.833 152.5,126.5C 152.5,128.5 152.5,130.5 152.5,132.5C 150.596,132.738 149.262,133.738 148.5,135.5C 147.869,133.552 146.869,131.719 145.5,130C 146.337,128.989 146.67,127.822 146.5,126.5 Z"/></g>
<g><path style="opacity:1" fill="#cacaca" d="M 146.5,126.5 C 146.67,127.822 146.337,128.989 145.5,130C 146.869,131.719 147.869,133.552 148.5,135.5C 152.966,139.903 151.966,141.903 145.5,141.5C 143.359,141.387 141.525,140.72 140,139.5C 139.057,141.954 137.224,142.954 134.5,142.5C 132.9,142.449 131.4,142.116 130,141.5C 129.812,139.939 130.645,139.272 132.5,139.5C 132.5,138.5 132.5,137.5 132.5,136.5C 132.664,133.813 132.497,131.146 132,128.5C 130.287,126.179 131.12,125.179 134.5,125.5C 136.747,125.085 138.914,124.418 141,123.5C 143.551,123.492 145.384,124.492 146.5,126.5 Z"/></g>
<g><path style="opacity:1" fill="#525252" d="M 182.5,128.5 C 184.201,128.966 185.701,128.966 187,128.5C 187.816,129.823 188.983,130.489 190.5,130.5C 190.167,131.167 189.833,131.833 189.5,132.5C 186.917,133.938 184.583,133.604 182.5,131.5C 182.5,130.5 182.5,129.5 182.5,128.5 Z"/></g>
<g><path style="opacity:1" fill="#6e6e6e" d="M 85.5,126.5 C 86.9179,128.308 88.9179,128.975 91.5,128.5C 91.5,130.167 91.5,131.833 91.5,133.5C 89.1346,134.008 86.8013,134.675 84.5,135.5C 84.1667,134.833 83.8333,134.167 83.5,133.5C 82.5832,134.127 81.5832,134.461 80.5,134.5C 80.5,132.833 80.5,131.167 80.5,129.5C 81.922,128.075 83.5887,127.075 85.5,126.5 Z"/></g>
<g><path style="opacity:1" fill="#3d3d3d" d="M 177.5,114.5 C 179.05,113.28 180.716,113.28 182.5,114.5C 189.774,113.705 190.774,115.371 185.5,119.5C 187.029,120.763 188.695,121.763 190.5,122.5C 190.328,124.492 190.995,126.158 192.5,127.5C 191.807,128.518 191.141,129.518 190.5,130.5C 188.983,130.489 187.816,129.823 187,128.5C 185.701,128.966 184.201,128.966 182.5,128.5C 181.813,121.05 178.146,119.384 171.5,123.5C 173.396,124.466 175.396,124.799 177.5,124.5C 177.5,128.5 177.5,132.5 177.5,136.5C 176.5,136.5 175.5,136.5 174.5,136.5C 172.508,136.328 170.842,136.995 169.5,138.5C 168.893,138.376 168.56,138.043 168.5,137.5C 170.811,131.156 169.477,125.823 164.5,121.5C 167.094,121.318 169.261,120.318 171,118.5C 172.27,120.578 173.77,120.912 175.5,119.5C 178.542,121.215 180.875,120.548 182.5,117.5C 181.272,115.679 179.606,114.679 177.5,114.5 Z"/></g>
<g><path style="opacity:1" fill="#616161" d="M 142.5,137.5 C 142.5,136.167 142.5,134.833 142.5,133.5C 140.379,133.325 138.379,133.659 136.5,134.5C 135.697,133.577 135.53,132.577 136,131.5C 137.828,129.919 139.828,128.585 142,127.5C 143.576,130.926 143.742,134.26 142.5,137.5 Z"/></g>
<g><path style="opacity:1" fill="#cbcbcb" d="M 163.5,121.5 C 163.833,121.5 164.167,121.5 164.5,121.5C 169.477,125.823 170.811,131.156 168.5,137.5C 166.463,138.846 164.463,140.18 162.5,141.5C 161.833,141.5 161.167,141.5 160.5,141.5C 155.309,140.803 152.642,137.803 152.5,132.5C 152.5,130.5 152.5,128.5 152.5,126.5C 154.808,122.056 158.475,120.389 163.5,121.5 Z"/></g>
<g><path style="opacity:1" fill="#5a5a5a" d="M 161.5,125.5 C 162.496,125.414 163.329,125.748 164,126.5C 164.667,129.5 164.667,132.5 164,135.5C 159.442,137.205 156.608,135.705 155.5,131C 156.733,128.264 158.733,126.431 161.5,125.5 Z"/></g>
<g><path style="opacity:1" fill="#646464" d="M 105.5,125.5 C 106.833,125.5 108.167,125.5 109.5,125.5C 107.884,127.416 108.218,128.916 110.5,130C 109.771,132.058 108.771,133.891 107.5,135.5C 103.402,134.177 99.4023,134.511 95.5,136.5C 93.9535,133.306 94.9535,130.973 98.5,129.5C 99.5037,130.154 100.504,130.987 101.5,132C 106.43,132.427 107.763,130.26 105.5,125.5 Z"/></g>
<g><path style="opacity:1" fill="#272727" d="M 48.5,128.5 C 46.8333,128.5 45.1667,128.5 43.5,128.5C 43.5,129.5 43.5,130.5 43.5,131.5C 44.5,131.5 45.5,131.5 46.5,131.5C 46.5,132.833 46.5,134.167 46.5,135.5C 46.5,137.167 46.5,138.833 46.5,140.5C 43.2784,140.108 40.2784,140.608 37.5,142C 38.2438,143.039 39.2438,143.539 40.5,143.5C 34.6066,144.412 28.6066,144.912 22.5,145C 23.5433,143.024 24.8767,142.524 26.5,143.5C 28.4137,141.798 29.9137,139.798 31,137.5C 31.4017,138.872 31.9017,140.205 32.5,141.5C 33.2739,142.711 34.1072,142.711 35,141.5C 35.6728,138.496 37.1728,135.996 39.5,134C 37.1811,132.853 35.8477,131.019 35.5,128.5C 39.9339,127.206 44.2673,127.206 48.5,128.5 Z"/></g>
<g><path style="opacity:1" fill="#404040" d="M 91.5,133.5 C 91.7989,135.604 91.4656,137.604 90.5,139.5C 88.4348,139.953 86.7682,140.953 85.5,142.5C 86.2427,143.182 86.9094,143.849 87.5,144.5C 85.8333,144.5 84.1667,144.5 82.5,144.5C 85.5997,141.131 84.9331,139.131 80.5,138.5C 80.5,137.167 80.5,135.833 80.5,134.5C 81.5832,134.461 82.5832,134.127 83.5,133.5C 83.8333,134.167 84.1667,134.833 84.5,135.5C 86.8013,134.675 89.1346,134.008 91.5,133.5 Z"/></g>
<g><path style="opacity:1" fill="#d0d0d0" d="M 124.5,126.5 C 124.5,129.833 124.5,133.167 124.5,136.5C 125.5,136.5 126.5,136.5 127.5,136.5C 128.754,140.596 127.087,142.596 122.5,142.5C 121.151,141.203 119.818,141.37 118.5,143C 115.854,143.497 113.187,143.664 110.5,143.5C 108.338,141.358 107.338,138.691 107.5,135.5C 108.771,133.891 109.771,132.058 110.5,130C 108.218,128.916 107.884,127.416 109.5,125.5C 114.816,121.212 119.816,121.546 124.5,126.5 Z"/></g>
<g><path style="opacity:1" fill="#545454" d="M 113.5,126.5 C 122.769,127.772 122.769,129.105 113.5,130.5C 113.5,129.167 113.5,127.833 113.5,126.5 Z"/></g>
<g><path style="opacity:1" fill="#cecece" d="M 202.5,118.5 C 202.833,118.5 203.167,118.5 203.5,118.5C 203.833,119.5 204.5,120.167 205.5,120.5C 207.343,124.187 208.01,128.187 207.5,132.5C 212.436,133.241 212.77,135.074 208.5,138C 206.623,138.576 204.789,138.409 203,137.5C 201.1,138.077 199.267,138.744 197.5,139.5C 192.964,139.297 190.298,136.964 189.5,132.5C 189.833,131.833 190.167,131.167 190.5,130.5C 191.141,129.518 191.807,128.518 192.5,127.5C 190.995,126.158 190.328,124.492 190.5,122.5C 193.687,119.075 197.687,117.741 202.5,118.5 Z"/></g>
<g><path style="opacity:1" fill="#2a2a2a" d="M 200.5,129.5 C 202.981,130.696 202.981,132.196 200.5,134C 198.421,134.808 196.421,134.641 194.5,133.5C 194.833,132.833 195.167,132.167 195.5,131.5C 197.291,130.83 198.958,130.163 200.5,129.5 Z"/></g>
<g><path style="opacity:1" fill="#232323" d="M 196.5,121.5 C 204.683,123.968 204.349,125.634 195.5,126.5C 195.366,124.708 195.699,123.042 196.5,121.5 Z"/></g>
<g><path style="opacity:1" fill="#cdcdcd" d="M 69.5,125.5 C 71.5,125.5 73.5,125.5 75.5,125.5C 75.6495,126.552 75.4828,127.552 75,128.5C 73.7083,127.209 72.5417,127.209 71.5,128.5C 70.5084,128.328 69.8417,128.662 69.5,129.5C 68.2121,131.035 68.2121,132.701 69.5,134.5C 71.444,133.811 73.444,133.311 75.5,133C 76.2266,131.601 76.7266,130.101 77,128.5C 78.7922,131.856 79.9589,135.189 80.5,138.5C 84.9331,139.131 85.5997,141.131 82.5,144.5C 80.4086,144.682 78.4086,144.348 76.5,143.5C 74.808,144.969 72.808,145.635 70.5,145.5C 67.4526,145.438 64.7859,144.438 62.5,142.5C 59.6107,145.056 56.2773,146.723 52.5,147.5C 54.756,148.421 55.756,150.088 55.5,152.5C 51.5874,153.596 47.5874,153.762 43.5,153C 42.7476,152.329 42.4142,151.496 42.5,150.5C 43.9952,150.011 45.3285,149.345 46.5,148.5C 47.8333,144.167 47.8333,139.833 46.5,135.5C 46.5,134.167 46.5,132.833 46.5,131.5C 45.5,131.5 44.5,131.5 43.5,131.5C 43.5,130.5 43.5,129.5 43.5,128.5C 45.1667,128.5 46.8333,128.5 48.5,128.5C 50.6854,128.296 52.6854,127.63 54.5,126.5C 56.42,127.065 58.0867,128.065 59.5,129.5C 61.7159,132.037 62.8826,135.037 63,138.5C 63.8141,136.718 64.9808,135.218 66.5,134C 64.75,132.246 64.0833,130.079 64.5,127.5C 65.8195,126.058 67.4862,125.392 69.5,125.5 Z"/></g>
<g><path style="opacity:1" fill="#424242" d="M 54.5,130.5 C 55.4959,130.414 56.3292,130.748 57,131.5C 59.6473,136.115 58.8139,139.781 54.5,142.5C 49.2661,138.391 49.2661,134.391 54.5,130.5 Z"/></g>
<g><path style="opacity:1" fill="#575757" d="M 71.5,128.5 C 73.0898,128.628 74.4231,129.295 75.5,130.5C 73.8273,132.086 71.8273,132.753 69.5,132.5C 69.5,131.5 69.5,130.5 69.5,129.5C 69.8417,128.662 70.5084,128.328 71.5,128.5 Z"/></g>
<g><path style="opacity:1" fill="#535353" d="M 64.5,127.5 C 64.0833,130.079 64.75,132.246 66.5,134C 64.9808,135.218 63.8141,136.718 63,138.5C 62.8826,135.037 61.7159,132.037 59.5,129.5C 60.1515,128.909 60.8182,128.243 61.5,127.5C 62.5272,128.791 63.5272,128.791 64.5,127.5 Z"/></g>
<g><path style="opacity:1" fill="#3b3b3b" d="M 118.5,133.5 C 121.106,134.85 121.106,136.35 118.5,138C 116.421,138.808 114.421,138.641 112.5,137.5C 114.219,135.648 116.219,134.314 118.5,133.5 Z"/></g>
<g><path style="opacity:1" fill="#545454" d="M 70.5,136.5 C 78.1778,136.67 78.3445,138.004 71,140.5C 66.5871,139.739 66.4204,138.405 70.5,136.5 Z"/></g>
<g><path style="opacity:1" fill="#141414" d="M 35.5,128.5 C 35.8477,131.019 37.1811,132.853 39.5,134C 37.1728,135.996 35.6728,138.496 35,141.5C 34.1072,142.711 33.2739,142.711 32.5,141.5C 31.9017,140.205 31.4017,138.872 31,137.5C 29.9137,139.798 28.4137,141.798 26.5,143.5C 24.8767,142.524 23.5433,143.024 22.5,145C 28.6066,144.912 34.6066,144.412 40.5,143.5C 42.5,143.833 44.5,144.167 46.5,144.5C 46.5,145.833 46.5,147.167 46.5,148.5C 45.3285,149.345 43.9952,150.011 42.5,150.5C 41.5205,148.01 40.3538,148.01 39,150.5C 38.228,150.355 37.5613,150.022 37,149.5C 28.2951,151.179 19.4618,151.846 10.5,151.5C 10.4056,148.459 11.9056,146.793 15,146.5C 15.6667,142.167 15.6667,137.833 15,133.5C 13.4905,132.91 11.9905,132.244 10.5,131.5C 10.8333,131.167 11.1667,130.833 11.5,130.5C 19.3955,128.839 27.3955,128.173 35.5,128.5 Z"/></g>
<g><path style="opacity:1" fill="#3e3e3e" d="M 107.5,135.5 C 107.338,138.691 108.338,141.358 110.5,143.5C 106.888,144.076 103.888,143.076 101.5,140.5C 99.2849,139.468 97.2849,138.134 95.5,136.5C 99.4023,134.511 103.402,134.177 107.5,135.5 Z"/></g>
<g><path style="opacity:1" fill="#575757" d="M 174.5,136.5 C 173.791,137.404 172.791,137.737 171.5,137.5C 171.5,138.5 171.5,139.5 171.5,140.5C 176.167,140.5 180.833,140.5 185.5,140.5C 185.082,141.222 184.416,141.722 183.5,142C 176.45,142.76 169.45,142.593 162.5,141.5C 164.463,140.18 166.463,138.846 168.5,137.5C 168.56,138.043 168.893,138.376 169.5,138.5C 170.842,136.995 172.508,136.328 174.5,136.5 Z"/></g>
<g><path style="opacity:1" fill="#484848" d="M 46.5,135.5 C 47.8333,139.833 47.8333,144.167 46.5,148.5C 46.5,147.167 46.5,145.833 46.5,144.5C 44.5,144.167 42.5,143.833 40.5,143.5C 39.2438,143.539 38.2438,143.039 37.5,142C 40.2784,140.608 43.2784,140.108 46.5,140.5C 46.5,138.833 46.5,137.167 46.5,135.5 Z"/></g>
<g><path style="opacity:1" fill="#404040" d="M 152.5,132.5 C 152.642,137.803 155.309,140.803 160.5,141.5C 158.777,142.8 156.61,143.467 154,143.5C 143.634,143.245 133.134,142.911 122.5,142.5C 127.087,142.596 128.754,140.596 127.5,136.5C 127.082,135.778 126.416,135.278 125.5,135C 127.345,133.872 129.345,133.372 131.5,133.5C 131.263,134.791 131.596,135.791 132.5,136.5C 132.5,137.5 132.5,138.5 132.5,139.5C 130.645,139.272 129.812,139.939 130,141.5C 131.4,142.116 132.9,142.449 134.5,142.5C 137.224,142.954 139.057,141.954 140,139.5C 141.525,140.72 143.359,141.387 145.5,141.5C 151.966,141.903 152.966,139.903 148.5,135.5C 149.262,133.738 150.596,132.738 152.5,132.5 Z"/></g>
<g><path style="opacity:1" fill="#363636" d="M 142.5,137.5 C 140.735,138.461 138.735,138.795 136.5,138.5C 136.5,137.167 136.5,135.833 136.5,134.5C 138.379,133.659 140.379,133.325 142.5,133.5C 142.5,134.833 142.5,136.167 142.5,137.5 Z"/></g>
<g><path style="opacity:1" fill="#242424" d="M 182.5,131.5 C 184.583,133.604 186.917,133.938 189.5,132.5C 190.298,136.964 192.964,139.297 197.5,139.5C 195.877,140.779 194.21,142.113 192.5,143.5C 196.44,147.84 197.44,152.84 195.5,158.5C 194.831,156.369 194.165,154.369 193.5,152.5C 193.727,150.067 192.727,148.401 190.5,147.5C 189.257,145.836 187.59,144.669 185.5,144C 181.5,143.833 177.5,143.667 173.5,143.5C 148.508,144.373 123.508,144.706 98.5,144.5C 100.229,143.764 101.229,142.43 101.5,140.5C 103.888,143.076 106.888,144.076 110.5,143.5C 113.187,143.664 115.854,143.497 118.5,143C 119.818,141.37 121.151,141.203 122.5,142.5C 133.134,142.911 143.634,143.245 154,143.5C 156.61,143.467 158.777,142.8 160.5,141.5C 161.167,141.5 161.833,141.5 162.5,141.5C 169.45,142.593 176.45,142.76 183.5,142C 184.416,141.722 185.082,141.222 185.5,140.5C 188.318,140.505 189.485,139.172 189,136.5C 186.959,135.577 184.792,135.244 182.5,135.5C 182.5,134.167 182.5,132.833 182.5,131.5 Z"/></g>
<g><path style="opacity:1" fill="#010101" d="M 190.5,147.5 C 192.212,149.896 192.712,152.562 192,155.5C 190.261,153.259 188.094,151.592 185.5,150.5C 185.635,151.981 185.301,153.647 184.5,155.5C 178.503,156.941 172.837,158.941 167.5,161.5C 161.796,164.358 156.463,167.858 151.5,172C 131.871,178.374 112.537,177.707 93.5,170C 87.2184,162.693 79.2184,158.86 69.5,158.5C 69.2035,155.276 69.8702,152.276 71.5,149.5C 77.8772,147.592 84.2106,145.925 90.5,144.5C 93.1667,144.5 95.8333,144.5 98.5,144.5C 123.508,144.706 148.508,144.373 173.5,143.5C 177.5,143.667 181.5,143.833 185.5,144C 187.59,144.669 189.257,145.836 190.5,147.5 Z"/></g>
<g><path style="opacity:1" fill="#1a1a1a" d="M 226.5,141.5 C 223.346,140.905 220.346,140.905 217.5,141.5C 216.5,141.5 215.5,141.5 214.5,141.5C 214.719,140.325 214.386,139.325 213.5,138.5C 212.304,138.846 212.304,139.346 213.5,140C 210.978,141.69 208.478,141.524 206,139.5C 203.114,141.225 199.948,141.892 196.5,141.5C 196.68,145.854 197.68,150.02 199.5,154C 198.42,159.401 197.087,164.735 195.5,170C 192.274,173.112 189.274,176.445 186.5,180C 184.001,180.286 181.835,180.119 180,179.5C 179.784,181.384 179.117,183.051 178,184.5C 175.281,183.556 172.448,183.223 169.5,183.5C 169.5,182.5 169.5,181.5 169.5,180.5C 171.5,180.5 173.5,180.5 175.5,180.5C 174.712,176.29 176.379,173.623 180.5,172.5C 182.138,169.696 183.971,167.029 186,164.5C 186.333,160.833 186.667,157.167 187,153.5C 189.121,155.845 190.288,158.679 190.5,162C 191.01,163.826 191.844,163.993 193,162.5C 193.498,159.183 193.665,155.85 193.5,152.5C 194.165,154.369 194.831,156.369 195.5,158.5C 197.44,152.84 196.44,147.84 192.5,143.5C 194.21,142.113 195.877,140.779 197.5,139.5C 199.267,138.744 201.1,138.077 203,137.5C 204.789,138.409 206.623,138.576 208.5,138C 212.77,135.074 212.436,133.241 207.5,132.5C 208.01,128.187 207.343,124.187 205.5,120.5C 208.697,119.618 210.863,120.952 212,124.5C 213.978,123.184 215.478,123.684 216.5,126C 215.833,128.667 215.167,131.333 214.5,134C 216.035,134.496 217.535,134.33 219,133.5C 219.945,133.905 220.612,134.572 221,135.5C 223.893,135.683 226.893,135.349 230,134.5C 230.5,135.667 231.333,136.5 232.5,137C 230.032,137.979 228.032,139.479 226.5,141.5 Z"/></g>
<g><path style="opacity:1" fill="#222222" d="M 127.5,151.5 C 131.966,151.156 135.966,152.323 139.5,155C 138.449,156.385 137.116,157.385 135.5,158C 130.833,158.667 126.167,158.667 121.5,158C 119.939,157.059 118.605,155.892 117.5,154.5C 120.953,153.487 124.287,152.487 127.5,151.5 Z"/></g>
<g><path style="opacity:1" fill="#1a1a1a" d="M 82.5,144.5 C 84.1667,144.5 85.8333,144.5 87.5,144.5C 88.5,144.5 89.5,144.5 90.5,144.5C 84.2106,145.925 77.8772,147.592 71.5,149.5C 69.8702,152.276 69.2035,155.276 69.5,158.5C 68.6559,165.418 70.3226,166.585 74.5,162C 79.1477,161.298 83.1477,162.631 86.5,166C 86.1667,166.167 85.8333,166.333 85.5,166.5C 82.667,165.067 79.667,164.4 76.5,164.5C 76.4208,165.93 76.7542,167.264 77.5,168.5C 81.4142,169.459 85.0809,170.959 88.5,173C 92.3035,176.81 96.6369,179.81 101.5,182C 115.553,183.896 129.553,184.23 143.5,183C 149.653,181.541 155.32,179.041 160.5,175.5C 161.95,176.658 162.95,176.158 163.5,174C 164.332,173.312 164.998,173.479 165.5,174.5C 164.469,175.7 163.635,177.034 163,178.5C 162.086,177.346 161.253,177.513 160.5,179C 161.126,179.75 161.626,180.584 162,181.5C 163.11,179.963 164.61,179.297 166.5,179.5C 166.703,181.39 166.037,182.89 164.5,184C 167.115,187.314 166.115,188.314 161.5,187C 162.451,186.282 162.617,185.449 162,184.5C 160.667,185.833 159.333,185.833 158,184.5C 155.955,186.924 153.288,188.257 150,188.5C 147.566,187.678 145.066,187.344 142.5,187.5C 132.828,187.334 123.161,187.5 113.5,188C 112.471,189.698 110.971,190.532 109,190.5C 106.361,189.215 103.694,187.882 101,186.5C 98.616,187.719 96.2826,187.719 94,186.5C 91.4505,189.747 88.6172,190.08 85.5,187.5C 84.1311,189.124 82.4645,189.624 80.5,189C 73.2445,184.525 68.0778,178.358 65,170.5C 64.301,165.372 63.1344,160.372 61.5,155.5C 61.4858,153.407 62.1524,151.574 63.5,150C 63.017,146.538 61.8504,146.038 60,148.5C 59.6667,148.167 59.3333,147.833 59,147.5C 57.7137,149.183 56.547,150.849 55.5,152.5C 55.756,150.088 54.756,148.421 52.5,147.5C 56.2773,146.723 59.6107,145.056 62.5,142.5C 64.7859,144.438 67.4526,145.438 70.5,145.5C 72.808,145.635 74.808,144.969 76.5,143.5C 78.4086,144.348 80.4086,144.682 82.5,144.5 Z"/></g>
<g><path style="opacity:1" fill="#0b0b0b" d="M 69.5,158.5 C 79.2184,158.86 87.2184,162.693 93.5,170C 112.537,177.707 131.871,178.374 151.5,172C 156.463,167.858 161.796,164.358 167.5,161.5C 163.975,165.183 159.975,168.35 155.5,171C 156,171.167 156.5,171.333 157,171.5C 162.035,168.151 167.201,164.984 172.5,162C 184.544,160.362 186.377,163.862 178,172.5C 176.657,171.786 175.324,172.12 174,173.5C 172.62,171.46 172.12,169.46 172.5,167.5C 167.692,168.979 163.692,171.645 160.5,175.5C 155.32,179.041 149.653,181.541 143.5,183C 129.553,184.23 115.553,183.896 101.5,182C 96.6369,179.81 92.3035,176.81 88.5,173C 85.0809,170.959 81.4142,169.459 77.5,168.5C 76.7542,167.264 76.4208,165.93 76.5,164.5C 79.667,164.4 82.667,165.067 85.5,166.5C 85.8333,166.333 86.1667,166.167 86.5,166C 83.1477,162.631 79.1477,161.298 74.5,162C 70.3226,166.585 68.6559,165.418 69.5,158.5 Z"/></g>
<g><path style="opacity:1" fill="#131313" d="M 217.5,141.5 C 212.16,142.281 206.66,142.948 201,143.5C 199.893,143.415 198.893,143.081 198,142.5C 199.787,147.775 200.954,153.275 201.5,159C 196.996,175.504 186.83,187.004 171,193.5C 166.13,191.307 161.13,190.641 156,191.5C 152.477,191.163 148.977,190.663 145.5,190C 143.881,189.764 142.881,188.931 142.5,187.5C 145.066,187.344 147.566,187.678 150,188.5C 153.288,188.257 155.955,186.924 158,184.5C 159.333,185.833 160.667,185.833 162,184.5C 162.617,185.449 162.451,186.282 161.5,187C 166.115,188.314 167.115,187.314 164.5,184C 166.037,182.89 166.703,181.39 166.5,179.5C 164.61,179.297 163.11,179.963 162,181.5C 161.626,180.584 161.126,179.75 160.5,179C 161.253,177.513 162.086,177.346 163,178.5C 163.635,177.034 164.469,175.7 165.5,174.5C 164.998,173.479 164.332,173.312 163.5,174C 162.95,176.158 161.95,176.658 160.5,175.5C 163.692,171.645 167.692,168.979 172.5,167.5C 172.12,169.46 172.62,171.46 174,173.5C 175.324,172.12 176.657,171.786 178,172.5C 186.377,163.862 184.544,160.362 172.5,162C 167.201,164.984 162.035,168.151 157,171.5C 156.5,171.333 156,171.167 155.5,171C 159.975,168.35 163.975,165.183 167.5,161.5C 172.837,158.941 178.503,156.941 184.5,155.5C 185.301,153.647 185.635,151.981 185.5,150.5C 188.094,151.592 190.261,153.259 192,155.5C 192.712,152.562 192.212,149.896 190.5,147.5C 192.727,148.401 193.727,150.067 193.5,152.5C 193.665,155.85 193.498,159.183 193,162.5C 191.844,163.993 191.01,163.826 190.5,162C 190.288,158.679 189.121,155.845 187,153.5C 186.667,157.167 186.333,160.833 186,164.5C 183.971,167.029 182.138,169.696 180.5,172.5C 176.379,173.623 174.712,176.29 175.5,180.5C 173.5,180.5 171.5,180.5 169.5,180.5C 169.5,181.5 169.5,182.5 169.5,183.5C 172.448,183.223 175.281,183.556 178,184.5C 179.117,183.051 179.784,181.384 180,179.5C 181.835,180.119 184.001,180.286 186.5,180C 189.274,176.445 192.274,173.112 195.5,170C 197.087,164.735 198.42,159.401 199.5,154C 197.68,150.02 196.68,145.854 196.5,141.5C 199.948,141.892 203.114,141.225 206,139.5C 208.478,141.524 210.978,141.69 213.5,140C 212.304,139.346 212.304,138.846 213.5,138.5C 214.386,139.325 214.719,140.325 214.5,141.5C 215.5,141.5 216.5,141.5 217.5,141.5 Z"/></g>
<g><path style="opacity:1" fill="#0c0c0c" d="M 118.5,193.5 C 124.326,197.129 130.326,200.629 136.5,204C 139.361,205.832 141.861,207.999 144,210.5C 147.65,209.292 151.15,209.792 154.5,212C 151.237,215.523 147.404,217.023 143,216.5C 135.011,220.731 126.677,221.398 118,218.5C 113.212,219.118 109.046,217.618 105.5,214C 105.306,212.57 105.306,211.07 105.5,209.5C 106.815,211.316 108.315,212.983 110,214.5C 113.267,211.972 116.434,212.305 119.5,215.5C 120.347,213.939 120.014,212.439 118.5,211C 119.451,210.282 119.617,209.449 119,208.5C 118.311,209.357 117.478,210.023 116.5,210.5C 116.467,209.011 115.967,207.678 115,206.5C 112.762,206.35 110.595,206.85 108.5,208C 108.057,206.482 108.724,205.315 110.5,204.5C 113.5,204.5 116.5,204.5 119.5,204.5C 121.333,203.948 123,203.115 124.5,202C 121.632,199.76 119.632,196.926 118.5,193.5 Z"/></g>
</svg>
